HIERARCHY
ROOT pelvis
{
  OFFSET 0 100 0
  CHANNELS 6 Xposition Yposition Zposition Zrotation Xrotation Yrotation
  JOINT pelvis_right_femur
  {
    OFFSET -10.78128 -3.44521 -0.5502486
    CHANNELS 3 Zrotation Xrotation Yrotation
    JOINT right_femur_tibia
    {
      OFFSET -0.8047443 -44.0398 -0.1307829
      CHANNELS 3 Zrotation Xrotation Yrotation
      JOINT right_tibia_foot
      {
        OFFSET 3.006224 -47.83518 -5
        CHANNELS 3 Zrotation Xrotation Yrotation
        End Site
        {
          OFFSET 0 -5 15
        }
      }
    }
  }
  JOINT pelvis_left_femur
  {
    OFFSET 10.78128 -3.44521 -0.5502486
    CHANNELS 3 Zrotation Xrotation Yrotation
    JOINT left_femur_tibia
    {
      OFFSET 0.8047443 -44.0398 -0.1307829
      CHANNELS 3 Zrotation Xrotation Yrotation
      JOINT left_tibia_foot
      {
        OFFSET -4.370144 -48.10324 -4.275266
        CHANNELS 3 Zrotation Xrotation Yrotation
        End Site
        {
          OFFSET 0 -5 15
        }
      }
    }
  }
  JOINT pelvis_spine1
  {
    OFFSET 0 6.468898 -3.129235
    CHANNELS 3 Zrotation Xrotation Yrotation
    JOINT spine1
    {
      OFFSET 0 23.15396 4.99043
      CHANNELS 3 Zrotation Xrotation Yrotation
      JOINT spine2
      {
        OFFSET 0 20.79997 -5.064912
        CHANNELS 3 Zrotation Xrotation Yrotation
        JOINT neck
        {
          OFFSET 0 14.38658 9.616178
          CHANNELS 3 Zrotation Xrotation Yrotation
          End Site
          {
            OFFSET 0 20 0
          }
        }
      }
      JOINT right_manubrium
      {
        OFFSET -5.722621 16.35077 3.967754
        CHANNELS 3 Zrotation Xrotation Yrotation
        JOINT right_clavicle
        {
          OFFSET -13.16364 1.694482 -4.693211
          CHANNELS 3 Zrotation Xrotation Yrotation
          JOINT right_humerus
          {
            OFFSET -28.5034 -0.3100689 -2.792744
            CHANNELS 3 Zrotation Xrotation Yrotation
            JOINT right_radius
            {
              OFFSET -25.15693 0.02248979 -1.271978
              CHANNELS 3 Zrotation Xrotation Yrotation
              End Site
              {
                OFFSET -15 0 0
              }
            }
          }
        }
      }
      JOINT left_manubrium
      {
        OFFSET 5.722621 16.35077 3.967754
        CHANNELS 3 Zrotation Xrotation Yrotation
        JOINT left_clavicle
        {
          OFFSET 13.16364 1.694482 -4.693211
          CHANNELS 3 Zrotation Xrotation Yrotation
          JOINT left_humerus
          {
            OFFSET 29.39168 -1.063119 -2.237045
            CHANNELS 3 Zrotation Xrotation Yrotation
            JOINT left_radius
            {
              OFFSET 24.59957 -0.9528479 0.9047498
              CHANNELS 3 Zrotation Xrotation Yrotation
              End Site
              {
                OFFSET 15 -0 -0
              }
            }
          }
        }
      }
    }
  }
}
MOTION
Frames: 13
Frame Time: 0.0416666666667
64.96291 101.7706 249.4886 4.545812 -7.462727 10.09187 -1.975832 24.17454 8.021513 -0 27.6196 -0 6.537275 -12.0238 -0.3748319 -2.639609 -23.07625 -7.275879 -0 24.72786 -0 -8.155461 -6.197554 18.35652 -1.485892 -1.700235 9.72152 -2.539774 9.592724 -2.069252 2.597871 21.7524 3.866165 1.422729 -14.5369 6.162355 0.511306 -21.68664 10.66507 82.23903 19.54612 -6.264908 -0 0 27.6825 -23.36455 10.14045 12.82212 4.51542 -12.8368 -2.911918 -94.46292 23.44611 26.51656 0 0 -8.537707 -4.620354 5.111116 18.78989
67.49036 102.1844 256.2527 4.980734 -7.667199 10.7335 -2.75843 22.32559 7.341482 -0 35.13506 -0 6.532909 -10.18197 -1.252956 -4.206674 -19.23989 -8.497999 -0 25.34808 -0 -7.813634 -6.855647 17.86883 -2.01298 -2.06174 9.358005 -2.504918 9.454762 -2.151917 2.680828 21.99383 3.871167 1.289604 -14.48563 6.396145 0.8836503 -20.72174 10.42915 83.0814 19.6156 -7.403216 -0 0 25.83481 -22.98737 10.16459 12.27558 4.336137 -12.71101 -3.022916 -93.65959 23.94749 25.4766 0 0 -8.303409 -4.597082 5.198726 18.86647
69.90682 103.1287 262.73 5.391266 -8.12016 11.7441 -3.038303 18.71542 6.422404 -0 42.61262 -0 6.266774 -8.776952 -2.509632 -5.46308 -14.46745 -9.388835 -0 25.72712 -0 -7.389842 -7.959899 17.40021 -2.427742 -2.002545 8.650056 -2.38486 9.425249 -2.363337 2.675161 22.36758 3.938359 1.111092 -14.34871 6.642934 1.378283 -19.66416 10.30756 84.13139 19.8815 -8.881541 -0 0 23.47886 -22.42667 10.2771 11.58469 4.181243 -13.01454 -3.209432 -92.35312 24.5114 23.59012 0 0 -8.716919 -4.363587 5.396823 18.65756
72.15049 104.4315 268.7767 5.671425 -8.687009 12.96297 -2.826237 13.47744 5.398362 -0 48.73474 -0 5.804155 -7.99377 -3.929962 -6.287681 -9.053787 -9.942789 -0 25.38551 -0 -6.959893 -9.353094 16.92055 -2.647187 -1.581252 7.59641 -2.175669 9.432213 -2.765186 2.59425 22.83315 4.077655 0.8926255 -14.13196 6.925305 1.828907 -18.62032 10.23319 85.3408 20.27748 -10.53985 -0 0 20.99491 -21.72479 10.43746 10.85339 4.079879 -13.6595 -3.473143 -90.64233 25.07791 20.94577 0 0 -9.726143 -3.935264 5.697997 18.18389
74.22969 105.8464 274.3882 5.758181 -9.114902 14.30799 -2.356751 7.207499 4.435929 -0 51.81176 -0 5.210521 -7.706321 -5.194933 -6.644084 -3.478217 -10.23797 -0 24.13181 -0 -6.645083 -10.75846 16.37928 -2.694377 -1.051845 6.3006 -1.865171 9.371246 -3.41388 2.503296 23.32111 4.268262 0.6715555 -13.863 7.264854 2.027985 -17.59802 10.0664 86.66358 20.69987 -12.29765 -0 0 18.73984 -20.95104 10.5873 10.18194 4.111985 -14.47861 -3.787363 -88.71016 25.58093 17.7417 0 0 -11.26143 -3.357608 6.091775 17.482
76.18151 107.08 279.653 5.698052 -9.237941 15.75533 -1.915128 0.5970972 3.665171 -0 51.12609 -0 4.493998 -7.662103 -6.200063 -6.648567 1.875126 -10.40741 -0 22.15434 -0 -6.465241 -12.11618 15.735 -2.670269 -0.5928511 4.928092 -1.470879 9.177834 -4.284578 2.471812 23.76521 4.451649 0.4898083 -13.57997 7.637298 1.886918 -16.59063 9.730183 87.98623 21.06734 -14.10599 -0 0 16.82916 -20.16805 10.68159 9.594628 4.319822 -15.38646 -4.107413 -86.68206 25.98385 14.17003 0 0 -13.24918 -2.674515 6.568493 16.57342
78.03813 107.842 284.7138 5.59347 -8.978559 17.26709 -1.753885 -5.6844 3.132383 -0 46.72315 -0 3.635815 -7.616291 -6.995363 -6.48537 6.732433 -10.55798 -0 19.87971 -0 -6.375004 -13.50919 14.97188 -2.704905 -0.2960853 3.669571 -1.031982 8.828611 -5.286933 2.555639 24.10674 4.554298 0.3829251 -13.32897 7.987785 1.417549 -15.58839 9.212434 89.16296 21.33141 -15.92515 -0 0 15.20429 -19.42191 10.69086 9.058377 4.708597 -16.35588 -4.378315 -84.63994 26.27334 10.41514 0 0 -15.60358 -1.920526 7.119607 15.47273
79.83268 107.9682 289.7329 5.531339 -8.427759 18.73635 -1.93621 -11.25994 2.739389 -0 39.55621 -0 2.633103 -7.602533 -7.710113 -6.316457 11.04111 -10.67253 -0 17.85732 -0 -6.331481 -14.98142 14.1495 -2.857226 -0.1502185 2.657253 -0.5927989 8.375803 -6.261407 2.737953 24.31707 4.546822 0.3461421 -13.16491 8.261375 0.7713731 -14.56966 8.613896 90.13589 21.50437 -17.72099 -0 0 13.66152 -18.70494 10.62671 8.490647 5.22628 -17.36057 -4.546875 -82.67194 26.44333 6.68689 0 0 -18.17002 -1.106901 7.730062 14.2248
81.59303 107.4613 294.8492 5.542915 -7.727746 20.00052 -2.370374 -15.9322 2.358707 -0 30.9726 -0 1.501989 -7.746552 -8.428632 -6.237213 14.8192 -10.68829 -0 16.55665 -0 -6.321404 -16.48794 13.35242 -3.113089 -0.09207567 1.960962 -0.186524 7.889263 -7.048774 2.970654 24.39818 4.433528 0.3570682 -13.12666 8.422508 0.1348416 -13.5366 8.068243 90.90745 21.62491 -19.43964 -0 0 12.01136 -17.98342 10.51884 7.816753 5.793026 -18.37305 -4.576447 -80.86959 26.50164 3.195025 0 0 -20.7543 -0.2432831 8.376612 12.89613
83.30965 106.4865 300.1208 5.552177 -7.018142 20.93951 -2.714617 -19.59973 1.915567 -0 22.69512 -0 0.2951424 -8.136703 -9.078895 -6.198699 18.04781 -10.56969 -0 16.25766 -0 -6.392598 -17.81239 12.66655 -3.357357 -0.01947734 1.571913 0.1714671 7.419178 -7.525479 3.196248 24.39801 4.251165 0.3864019 -13.21351 8.471524 -0.3152461 -12.55364 7.708868 91.52869 21.74421 -20.96244 -0 0 10.19217 -17.20705 10.40876 7.012154 6.298047 -19.36287 -4.460977 -79.34347 26.47144 0.1583168 0 0 -23.09849 0.6397248 9.020745 11.58604
84.9586 105.295 305.5991 5.474421 -6.423519 21.57358 -2.675169 -22.1503 1.537966 -0 16.22031 -0 -0.9113338 -8.666717 -9.604079 -6.058294 20.706 -10.3631 -0 17.15726 -0 -6.600475 -18.67008 12.15812 -3.473044 0.06807 1.399163 0.483596 6.999212 -7.68476 3.386614 24.37251 4.034338 0.4183736 -13.4062 8.431475 -0.506189 -11.66706 7.574247 92.0564 21.88756 -22.19631 -0 0 8.274649 -16.35578 10.32283 6.111654 6.651335 -20.23673 -4.231711 -78.2089 26.40479 -2.222757 0 0 -24.95575 1.491242 9.629283 10.39374
86.555 104.1508 311.4181 5.236158 -6.070844 22.11614 -2.059812 -23.37435 1.563286 -0 12.83804 -0 -2.012332 -9.003179 -9.994009 -5.588013 22.74387 -10.20851 -0 19.51087 -0 -6.997422 -18.69273 11.90157 -3.358248 0.04021934 1.271219 0.7633322 6.660512 -7.645204 3.54668 24.38265 3.806962 0.453997 -13.6719 8.339381 -0.4735538 -10.8913 7.600685 92.53587 22.04825 -23.07235 -0 0 6.468131 -15.45416 10.27023 5.214987 6.783693 -20.80235 -3.955513 -77.61474 26.38465 -3.720347 0 0 -26.0579 2.231989 10.17621 9.428106
88.14461 103.2923 317.6709 4.854356 -6.053387 22.6545 -0.9076647 -23.15902 2.120068 -0 12.51453 -0 -2.972976 -9.052995 -10.21407 -4.784374 23.94276 -10.15282 -0 23.57706 -0 -7.536104 -17.69143 12.0293 -2.996528 -0.1383194 1.121462 1.008901 6.459574 -7.517086 3.676454 24.48237 3.571609 0.4948002 -13.95426 8.198665 -0.3190259 -10.29306 7.704416 92.91233 22.22146 -23.501 -0 0 5.014051 -14.58468 10.23707 4.441683 6.703426 -20.9209 -3.6691 -77.65403 26.48028 -4.176709 0 0 -26.23566 2.789721 10.6533 8.769225
